<?xml version="1.0" encoding="UTF-8" standalone="no"?>
<!-- This is a Stata 18.5 generated SVG file (http://www.stata.com) -->

<svg version="1.1" width="7.500in" height="4.500in" viewBox="0 0 5400 3240" xmlns="http://www.w3.org/2000/svg" xmlns:xlink="http://www.w3.org/1999/xlink">
	<desc>Stata Graph - beta_density</desc>
	<rect x="0" y="0" width="5400" height="3240" style="fill:#FFFFFF;stroke:none"/>
	<rect x="0.00" y="0.00" width="5400.00" height="3240.00" style="fill:#FFFFFF"/>
	<rect x="3.24" y="3.24" width="5393.52" height="3233.52" style="fill:none;stroke:#FFFFFF;stroke-width:6.48"/>
	<rect x="524.98" y="309.82" width="3403.52" height="2456.83" style="fill:#FFFFFF"/>
	<rect x="528.22" y="313.06" width="3397.04" height="2450.35" style="fill:none;stroke:#FFFFFF;stroke-width:6.48"/>
	<line x1="524.98" y1="2695.28" x2="589.78" y2="2695.28" style="stroke:#F0F0F0;stroke-width:9.72"/>
	<line x1="622.18" y1="2695.28" x2="686.98" y2="2695.28" style="stroke:#F0F0F0;stroke-width:9.72"/>
	<line x1="719.38" y1="2695.28" x2="784.18" y2="2695.28" style="stroke:#F0F0F0;stroke-width:9.72"/>
	<line x1="816.58" y1="2695.28" x2="881.38" y2="2695.28" style="stroke:#F0F0F0;stroke-width:9.72"/>
	<line x1="913.78" y1="2695.28" x2="978.58" y2="2695.28" style="stroke:#F0F0F0;stroke-width:9.72"/>
	<line x1="1010.98" y1="2695.28" x2="1075.78" y2="2695.28" style="stroke:#F0F0F0;stroke-width:9.72"/>
	<line x1="1108.18" y1="2695.28" x2="1172.98" y2="2695.28" style="stroke:#F0F0F0;stroke-width:9.72"/>
	<line x1="1205.38" y1="2695.28" x2="1270.18" y2="2695.28" style="stroke:#F0F0F0;stroke-width:9.72"/>
	<line x1="1302.58" y1="2695.28" x2="1367.38" y2="2695.28" style="stroke:#F0F0F0;stroke-width:9.72"/>
	<line x1="1399.78" y1="2695.28" x2="1464.58" y2="2695.28" style="stroke:#F0F0F0;stroke-width:9.72"/>
	<line x1="1496.98" y1="2695.28" x2="1561.78" y2="2695.28" style="stroke:#F0F0F0;stroke-width:9.72"/>
	<line x1="1594.18" y1="2695.28" x2="1658.98" y2="2695.28" style="stroke:#F0F0F0;stroke-width:9.72"/>
	<line x1="1691.38" y1="2695.28" x2="1756.18" y2="2695.28" style="stroke:#F0F0F0;stroke-width:9.72"/>
	<line x1="1788.58" y1="2695.28" x2="1853.38" y2="2695.28" style="stroke:#F0F0F0;stroke-width:9.72"/>
	<line x1="1885.78" y1="2695.28" x2="1950.58" y2="2695.28" style="stroke:#F0F0F0;stroke-width:9.72"/>
	<line x1="1982.98" y1="2695.28" x2="2047.78" y2="2695.28" style="stroke:#F0F0F0;stroke-width:9.72"/>
	<line x1="2080.18" y1="2695.28" x2="2144.98" y2="2695.28" style="stroke:#F0F0F0;stroke-width:9.72"/>
	<line x1="2177.38" y1="2695.28" x2="2242.18" y2="2695.28" style="stroke:#F0F0F0;stroke-width:9.72"/>
	<line x1="2274.58" y1="2695.28" x2="2339.38" y2="2695.28" style="stroke:#F0F0F0;stroke-width:9.72"/>
	<line x1="2371.78" y1="2695.28" x2="2436.58" y2="2695.28" style="stroke:#F0F0F0;stroke-width:9.72"/>
	<line x1="2468.98" y1="2695.28" x2="2533.78" y2="2695.28" style="stroke:#F0F0F0;stroke-width:9.72"/>
	<line x1="2566.18" y1="2695.28" x2="2630.98" y2="2695.28" style="stroke:#F0F0F0;stroke-width:9.72"/>
	<line x1="2663.38" y1="2695.28" x2="2728.18" y2="2695.28" style="stroke:#F0F0F0;stroke-width:9.72"/>
	<line x1="2760.58" y1="2695.28" x2="2825.38" y2="2695.28" style="stroke:#F0F0F0;stroke-width:9.72"/>
	<line x1="2857.78" y1="2695.28" x2="2922.58" y2="2695.28" style="stroke:#F0F0F0;stroke-width:9.72"/>
	<line x1="2954.98" y1="2695.28" x2="3019.78" y2="2695.28" style="stroke:#F0F0F0;stroke-width:9.72"/>
	<line x1="3052.18" y1="2695.28" x2="3116.98" y2="2695.28" style="stroke:#F0F0F0;stroke-width:9.72"/>
	<line x1="3149.38" y1="2695.28" x2="3214.18" y2="2695.28" style="stroke:#F0F0F0;stroke-width:9.72"/>
	<line x1="3246.58" y1="2695.28" x2="3311.38" y2="2695.28" style="stroke:#F0F0F0;stroke-width:9.72"/>
	<line x1="3343.78" y1="2695.28" x2="3408.58" y2="2695.28" style="stroke:#F0F0F0;stroke-width:9.72"/>
	<line x1="3440.98" y1="2695.28" x2="3505.78" y2="2695.28" style="stroke:#F0F0F0;stroke-width:9.72"/>
	<line x1="3538.18" y1="2695.28" x2="3602.98" y2="2695.28" style="stroke:#F0F0F0;stroke-width:9.72"/>
	<line x1="3635.38" y1="2695.28" x2="3700.18" y2="2695.28" style="stroke:#F0F0F0;stroke-width:9.72"/>
	<line x1="3732.58" y1="2695.28" x2="3797.38" y2="2695.28" style="stroke:#F0F0F0;stroke-width:9.72"/>
	<line x1="3829.78" y1="2695.28" x2="3894.58" y2="2695.28" style="stroke:#F0F0F0;stroke-width:9.72"/>
	<line x1="3926.98" y1="2695.28" x2="3928.50" y2="2695.28" style="stroke:#F0F0F0;stroke-width:9.72"/>
	<line x1="524.98" y1="1923.92" x2="589.78" y2="1923.92" style="stroke:#F0F0F0;stroke-width:9.72"/>
	<line x1="622.18" y1="1923.92" x2="686.98" y2="1923.92" style="stroke:#F0F0F0;stroke-width:9.72"/>
	<line x1="719.38" y1="1923.92" x2="784.18" y2="1923.92" style="stroke:#F0F0F0;stroke-width:9.72"/>
	<line x1="816.58" y1="1923.92" x2="881.38" y2="1923.92" style="stroke:#F0F0F0;stroke-width:9.72"/>
	<line x1="913.78" y1="1923.92" x2="978.58" y2="1923.92" style="stroke:#F0F0F0;stroke-width:9.72"/>
	<line x1="1010.98" y1="1923.92" x2="1075.78" y2="1923.92" style="stroke:#F0F0F0;stroke-width:9.72"/>
	<line x1="1108.18" y1="1923.92" x2="1172.98" y2="1923.92" style="stroke:#F0F0F0;stroke-width:9.72"/>
	<line x1="1205.38" y1="1923.92" x2="1270.18" y2="1923.92" style="stroke:#F0F0F0;stroke-width:9.72"/>
	<line x1="1302.58" y1="1923.92" x2="1367.38" y2="1923.92" style="stroke:#F0F0F0;stroke-width:9.72"/>
	<line x1="1399.78" y1="1923.92" x2="1464.58" y2="1923.92" style="stroke:#F0F0F0;stroke-width:9.72"/>
	<line x1="1496.98" y1="1923.92" x2="1561.78" y2="1923.92" style="stroke:#F0F0F0;stroke-width:9.72"/>
	<line x1="1594.18" y1="1923.92" x2="1658.98" y2="1923.92" style="stroke:#F0F0F0;stroke-width:9.72"/>
	<line x1="1691.38" y1="1923.92" x2="1756.18" y2="1923.92" style="stroke:#F0F0F0;stroke-width:9.72"/>
	<line x1="1788.58" y1="1923.92" x2="1853.38" y2="1923.92" style="stroke:#F0F0F0;stroke-width:9.72"/>
	<line x1="1885.78" y1="1923.92" x2="1950.58" y2="1923.92" style="stroke:#F0F0F0;stroke-width:9.72"/>
	<line x1="1982.98" y1="1923.92" x2="2047.78" y2="1923.92" style="stroke:#F0F0F0;stroke-width:9.72"/>
	<line x1="2080.18" y1="1923.92" x2="2144.98" y2="1923.92" style="stroke:#F0F0F0;stroke-width:9.72"/>
	<line x1="2177.38" y1="1923.92" x2="2242.18" y2="1923.92" style="stroke:#F0F0F0;stroke-width:9.72"/>
	<line x1="2274.58" y1="1923.92" x2="2339.38" y2="1923.92" style="stroke:#F0F0F0;stroke-width:9.72"/>
	<line x1="2371.78" y1="1923.92" x2="2436.58" y2="1923.92" style="stroke:#F0F0F0;stroke-width:9.72"/>
	<line x1="2468.98" y1="1923.92" x2="2533.78" y2="1923.92" style="stroke:#F0F0F0;stroke-width:9.72"/>
	<line x1="2566.18" y1="1923.92" x2="2630.98" y2="1923.92" style="stroke:#F0F0F0;stroke-width:9.72"/>
	<line x1="2663.38" y1="1923.92" x2="2728.18" y2="1923.92" style="stroke:#F0F0F0;stroke-width:9.72"/>
	<line x1="2760.58" y1="1923.92" x2="2825.38" y2="1923.92" style="stroke:#F0F0F0;stroke-width:9.72"/>
	<line x1="2857.78" y1="1923.92" x2="2922.58" y2="1923.92" style="stroke:#F0F0F0;stroke-width:9.72"/>
	<line x1="2954.98" y1="1923.92" x2="3019.78" y2="1923.92" style="stroke:#F0F0F0;stroke-width:9.72"/>
	<line x1="3052.18" y1="1923.92" x2="3116.98" y2="1923.92" style="stroke:#F0F0F0;stroke-width:9.72"/>
	<line x1="3149.38" y1="1923.92" x2="3214.18" y2="1923.92" style="stroke:#F0F0F0;stroke-width:9.72"/>
	<line x1="3246.58" y1="1923.92" x2="3311.38" y2="1923.92" style="stroke:#F0F0F0;stroke-width:9.72"/>
	<line x1="3343.78" y1="1923.92" x2="3408.58" y2="1923.92" style="stroke:#F0F0F0;stroke-width:9.72"/>
	<line x1="3440.98" y1="1923.92" x2="3505.78" y2="1923.92" style="stroke:#F0F0F0;stroke-width:9.72"/>
	<line x1="3538.18" y1="1923.92" x2="3602.98" y2="1923.92" style="stroke:#F0F0F0;stroke-width:9.72"/>
	<line x1="3635.38" y1="1923.92" x2="3700.18" y2="1923.92" style="stroke:#F0F0F0;stroke-width:9.72"/>
	<line x1="3732.58" y1="1923.92" x2="3797.38" y2="1923.92" style="stroke:#F0F0F0;stroke-width:9.72"/>
	<line x1="3829.78" y1="1923.92" x2="3894.58" y2="1923.92" style="stroke:#F0F0F0;stroke-width:9.72"/>
	<line x1="3926.98" y1="1923.92" x2="3928.50" y2="1923.92" style="stroke:#F0F0F0;stroke-width:9.72"/>
	<line x1="524.98" y1="1152.56" x2="589.78" y2="1152.56" style="stroke:#F0F0F0;stroke-width:9.72"/>
	<line x1="622.18" y1="1152.56" x2="686.98" y2="1152.56" style="stroke:#F0F0F0;stroke-width:9.72"/>
	<line x1="719.38" y1="1152.56" x2="784.18" y2="1152.56" style="stroke:#F0F0F0;stroke-width:9.72"/>
	<line x1="816.58" y1="1152.56" x2="881.38" y2="1152.56" style="stroke:#F0F0F0;stroke-width:9.72"/>
	<line x1="913.78" y1="1152.56" x2="978.58" y2="1152.56" style="stroke:#F0F0F0;stroke-width:9.72"/>
	<line x1="1010.98" y1="1152.56" x2="1075.78" y2="1152.56" style="stroke:#F0F0F0;stroke-width:9.72"/>
	<line x1="1108.18" y1="1152.56" x2="1172.98" y2="1152.56" style="stroke:#F0F0F0;stroke-width:9.72"/>
	<line x1="1205.38" y1="1152.56" x2="1270.18" y2="1152.56" style="stroke:#F0F0F0;stroke-width:9.72"/>
	<line x1="1302.58" y1="1152.56" x2="1367.38" y2="1152.56" style="stroke:#F0F0F0;stroke-width:9.72"/>
	<line x1="1399.78" y1="1152.56" x2="1464.58" y2="1152.56" style="stroke:#F0F0F0;stroke-width:9.72"/>
	<line x1="1496.98" y1="1152.56" x2="1561.78" y2="1152.56" style="stroke:#F0F0F0;stroke-width:9.72"/>
	<line x1="1594.18" y1="1152.56" x2="1658.98" y2="1152.56" style="stroke:#F0F0F0;stroke-width:9.72"/>
	<line x1="1691.38" y1="1152.56" x2="1756.18" y2="1152.56" style="stroke:#F0F0F0;stroke-width:9.72"/>
	<line x1="1788.58" y1="1152.56" x2="1853.38" y2="1152.56" style="stroke:#F0F0F0;stroke-width:9.72"/>
	<line x1="1885.78" y1="1152.56" x2="1950.58" y2="1152.56" style="stroke:#F0F0F0;stroke-width:9.72"/>
	<line x1="1982.98" y1="1152.56" x2="2047.78" y2="1152.56" style="stroke:#F0F0F0;stroke-width:9.72"/>
	<line x1="2080.18" y1="1152.56" x2="2144.98" y2="1152.56" style="stroke:#F0F0F0;stroke-width:9.72"/>
	<line x1="2177.38" y1="1152.56" x2="2242.18" y2="1152.56" style="stroke:#F0F0F0;stroke-width:9.72"/>
	<line x1="2274.58" y1="1152.56" x2="2339.38" y2="1152.56" style="stroke:#F0F0F0;stroke-width:9.72"/>
	<line x1="2371.78" y1="1152.56" x2="2436.58" y2="1152.56" style="stroke:#F0F0F0;stroke-width:9.72"/>
	<line x1="2468.98" y1="1152.56" x2="2533.78" y2="1152.56" style="stroke:#F0F0F0;stroke-width:9.72"/>
	<line x1="2566.18" y1="1152.56" x2="2630.98" y2="1152.56" style="stroke:#F0F0F0;stroke-width:9.72"/>
	<line x1="2663.38" y1="1152.56" x2="2728.18" y2="1152.56" style="stroke:#F0F0F0;stroke-width:9.72"/>
	<line x1="2760.58" y1="1152.56" x2="2825.38" y2="1152.56" style="stroke:#F0F0F0;stroke-width:9.72"/>
	<line x1="2857.78" y1="1152.56" x2="2922.58" y2="1152.56" style="stroke:#F0F0F0;stroke-width:9.72"/>
	<line x1="2954.98" y1="1152.56" x2="3019.78" y2="1152.56" style="stroke:#F0F0F0;stroke-width:9.72"/>
	<line x1="3052.18" y1="1152.56" x2="3116.98" y2="1152.56" style="stroke:#F0F0F0;stroke-width:9.72"/>
	<line x1="3149.38" y1="1152.56" x2="3214.18" y2="1152.56" style="stroke:#F0F0F0;stroke-width:9.72"/>
	<line x1="3246.58" y1="1152.56" x2="3311.38" y2="1152.56" style="stroke:#F0F0F0;stroke-width:9.72"/>
	<line x1="3343.78" y1="1152.56" x2="3408.58" y2="1152.56" style="stroke:#F0F0F0;stroke-width:9.72"/>
	<line x1="3440.98" y1="1152.56" x2="3505.78" y2="1152.56" style="stroke:#F0F0F0;stroke-width:9.72"/>
	<line x1="3538.18" y1="1152.56" x2="3602.98" y2="1152.56" style="stroke:#F0F0F0;stroke-width:9.72"/>
	<line x1="3635.38" y1="1152.56" x2="3700.18" y2="1152.56" style="stroke:#F0F0F0;stroke-width:9.72"/>
	<line x1="3732.58" y1="1152.56" x2="3797.38" y2="1152.56" style="stroke:#F0F0F0;stroke-width:9.72"/>
	<line x1="3829.78" y1="1152.56" x2="3894.58" y2="1152.56" style="stroke:#F0F0F0;stroke-width:9.72"/>
	<line x1="3926.98" y1="1152.56" x2="3928.50" y2="1152.56" style="stroke:#F0F0F0;stroke-width:9.72"/>
	<line x1="524.98" y1="381.04" x2="589.78" y2="381.04" style="stroke:#F0F0F0;stroke-width:9.72"/>
	<line x1="622.18" y1="381.04" x2="686.98" y2="381.04" style="stroke:#F0F0F0;stroke-width:9.72"/>
	<line x1="719.38" y1="381.04" x2="784.18" y2="381.04" style="stroke:#F0F0F0;stroke-width:9.72"/>
	<line x1="816.58" y1="381.04" x2="881.38" y2="381.04" style="stroke:#F0F0F0;stroke-width:9.72"/>
	<line x1="913.78" y1="381.04" x2="978.58" y2="381.04" style="stroke:#F0F0F0;stroke-width:9.72"/>
	<line x1="1010.98" y1="381.04" x2="1075.78" y2="381.04" style="stroke:#F0F0F0;stroke-width:9.72"/>
	<line x1="1108.18" y1="381.04" x2="1172.98" y2="381.04" style="stroke:#F0F0F0;stroke-width:9.72"/>
	<line x1="1205.38" y1="381.04" x2="1270.18" y2="381.04" style="stroke:#F0F0F0;stroke-width:9.72"/>
	<line x1="1302.58" y1="381.04" x2="1367.38" y2="381.04" style="stroke:#F0F0F0;stroke-width:9.72"/>
	<line x1="1399.78" y1="381.04" x2="1464.58" y2="381.04" style="stroke:#F0F0F0;stroke-width:9.72"/>
	<line x1="1496.98" y1="381.04" x2="1561.78" y2="381.04" style="stroke:#F0F0F0;stroke-width:9.72"/>
	<line x1="1594.18" y1="381.04" x2="1658.98" y2="381.04" style="stroke:#F0F0F0;stroke-width:9.72"/>
	<line x1="1691.38" y1="381.04" x2="1756.18" y2="381.04" style="stroke:#F0F0F0;stroke-width:9.72"/>
	<line x1="1788.58" y1="381.04" x2="1853.38" y2="381.04" style="stroke:#F0F0F0;stroke-width:9.72"/>
	<line x1="1885.78" y1="381.04" x2="1950.58" y2="381.04" style="stroke:#F0F0F0;stroke-width:9.72"/>
	<line x1="1982.98" y1="381.04" x2="2047.78" y2="381.04" style="stroke:#F0F0F0;stroke-width:9.72"/>
	<line x1="2080.18" y1="381.04" x2="2144.98" y2="381.04" style="stroke:#F0F0F0;stroke-width:9.72"/>
	<line x1="2177.38" y1="381.04" x2="2242.18" y2="381.04" style="stroke:#F0F0F0;stroke-width:9.72"/>
	<line x1="2274.58" y1="381.04" x2="2339.38" y2="381.04" style="stroke:#F0F0F0;stroke-width:9.72"/>
	<line x1="2371.78" y1="381.04" x2="2436.58" y2="381.04" style="stroke:#F0F0F0;stroke-width:9.72"/>
	<line x1="2468.98" y1="381.04" x2="2533.78" y2="381.04" style="stroke:#F0F0F0;stroke-width:9.72"/>
	<line x1="2566.18" y1="381.04" x2="2630.98" y2="381.04" style="stroke:#F0F0F0;stroke-width:9.72"/>
	<line x1="2663.38" y1="381.04" x2="2728.18" y2="381.04" style="stroke:#F0F0F0;stroke-width:9.72"/>
	<line x1="2760.58" y1="381.04" x2="2825.38" y2="381.04" style="stroke:#F0F0F0;stroke-width:9.72"/>
	<line x1="2857.78" y1="381.04" x2="2922.58" y2="381.04" style="stroke:#F0F0F0;stroke-width:9.72"/>
	<line x1="2954.98" y1="381.04" x2="3019.78" y2="381.04" style="stroke:#F0F0F0;stroke-width:9.72"/>
	<line x1="3052.18" y1="381.04" x2="3116.98" y2="381.04" style="stroke:#F0F0F0;stroke-width:9.72"/>
	<line x1="3149.38" y1="381.04" x2="3214.18" y2="381.04" style="stroke:#F0F0F0;stroke-width:9.72"/>
	<line x1="3246.58" y1="381.04" x2="3311.38" y2="381.04" style="stroke:#F0F0F0;stroke-width:9.72"/>
	<line x1="3343.78" y1="381.04" x2="3408.58" y2="381.04" style="stroke:#F0F0F0;stroke-width:9.72"/>
	<line x1="3440.98" y1="381.04" x2="3505.78" y2="381.04" style="stroke:#F0F0F0;stroke-width:9.72"/>
	<line x1="3538.18" y1="381.04" x2="3602.98" y2="381.04" style="stroke:#F0F0F0;stroke-width:9.72"/>
	<line x1="3635.38" y1="381.04" x2="3700.18" y2="381.04" style="stroke:#F0F0F0;stroke-width:9.72"/>
	<line x1="3732.58" y1="381.04" x2="3797.38" y2="381.04" style="stroke:#F0F0F0;stroke-width:9.72"/>
	<line x1="3829.78" y1="381.04" x2="3894.58" y2="381.04" style="stroke:#F0F0F0;stroke-width:9.72"/>
	<line x1="3926.98" y1="381.04" x2="3928.50" y2="381.04" style="stroke:#F0F0F0;stroke-width:9.72"/>
	<line x1="596.19" y1="2766.66" x2="596.19" y2="2701.86" style="stroke:#F0F0F0;stroke-width:9.72"/>
	<line x1="596.19" y1="2669.46" x2="596.19" y2="2604.66" style="stroke:#F0F0F0;stroke-width:9.72"/>
	<line x1="596.19" y1="2572.26" x2="596.19" y2="2507.46" style="stroke:#F0F0F0;stroke-width:9.72"/>
	<line x1="596.19" y1="2475.06" x2="596.19" y2="2410.26" style="stroke:#F0F0F0;stroke-width:9.72"/>
	<line x1="596.19" y1="2377.86" x2="596.19" y2="2313.06" style="stroke:#F0F0F0;stroke-width:9.72"/>
	<line x1="596.19" y1="2280.66" x2="596.19" y2="2215.86" style="stroke:#F0F0F0;stroke-width:9.72"/>
	<line x1="596.19" y1="2183.46" x2="596.19" y2="2118.66" style="stroke:#F0F0F0;stroke-width:9.72"/>
	<line x1="596.19" y1="2086.26" x2="596.19" y2="2021.46" style="stroke:#F0F0F0;stroke-width:9.72"/>
	<line x1="596.19" y1="1989.06" x2="596.19" y2="1924.26" style="stroke:#F0F0F0;stroke-width:9.72"/>
	<line x1="596.19" y1="1891.86" x2="596.19" y2="1827.06" style="stroke:#F0F0F0;stroke-width:9.72"/>
	<line x1="596.19" y1="1794.66" x2="596.19" y2="1729.86" style="stroke:#F0F0F0;stroke-width:9.72"/>
	<line x1="596.19" y1="1697.46" x2="596.19" y2="1632.66" style="stroke:#F0F0F0;stroke-width:9.72"/>
	<line x1="596.19" y1="1600.26" x2="596.19" y2="1535.46" style="stroke:#F0F0F0;stroke-width:9.72"/>
	<line x1="596.19" y1="1503.06" x2="596.19" y2="1438.26" style="stroke:#F0F0F0;stroke-width:9.72"/>
	<line x1="596.19" y1="1405.86" x2="596.19" y2="1341.06" style="stroke:#F0F0F0;stroke-width:9.72"/>
	<line x1="596.19" y1="1308.66" x2="596.19" y2="1243.86" style="stroke:#F0F0F0;stroke-width:9.72"/>
	<line x1="596.19" y1="1211.46" x2="596.19" y2="1146.66" style="stroke:#F0F0F0;stroke-width:9.72"/>
	<line x1="596.19" y1="1114.26" x2="596.19" y2="1049.46" style="stroke:#F0F0F0;stroke-width:9.72"/>
	<line x1="596.19" y1="1017.06" x2="596.19" y2="952.26" style="stroke:#F0F0F0;stroke-width:9.72"/>
	<line x1="596.19" y1="919.86" x2="596.19" y2="855.06" style="stroke:#F0F0F0;stroke-width:9.72"/>
	<line x1="596.19" y1="822.66" x2="596.19" y2="757.86" style="stroke:#F0F0F0;stroke-width:9.72"/>
	<line x1="596.19" y1="725.46" x2="596.19" y2="660.66" style="stroke:#F0F0F0;stroke-width:9.72"/>
	<line x1="596.19" y1="628.26" x2="596.19" y2="563.46" style="stroke:#F0F0F0;stroke-width:9.72"/>
	<line x1="596.19" y1="531.06" x2="596.19" y2="466.26" style="stroke:#F0F0F0;stroke-width:9.72"/>
	<line x1="596.19" y1="433.86" x2="596.19" y2="369.06" style="stroke:#F0F0F0;stroke-width:9.72"/>
	<line x1="596.19" y1="336.66" x2="596.19" y2="309.82" style="stroke:#F0F0F0;stroke-width:9.72"/>
	<line x1="1411.43" y1="2766.66" x2="1411.43" y2="2701.86" style="stroke:#F0F0F0;stroke-width:9.72"/>
	<line x1="1411.43" y1="2669.46" x2="1411.43" y2="2604.66" style="stroke:#F0F0F0;stroke-width:9.72"/>
	<line x1="1411.43" y1="2572.26" x2="1411.43" y2="2507.46" style="stroke:#F0F0F0;stroke-width:9.72"/>
	<line x1="1411.43" y1="2475.06" x2="1411.43" y2="2410.26" style="stroke:#F0F0F0;stroke-width:9.72"/>
	<line x1="1411.43" y1="2377.86" x2="1411.43" y2="2313.06" style="stroke:#F0F0F0;stroke-width:9.72"/>
	<line x1="1411.43" y1="2280.66" x2="1411.43" y2="2215.86" style="stroke:#F0F0F0;stroke-width:9.72"/>
	<line x1="1411.43" y1="2183.46" x2="1411.43" y2="2118.66" style="stroke:#F0F0F0;stroke-width:9.72"/>
	<line x1="1411.43" y1="2086.26" x2="1411.43" y2="2021.46" style="stroke:#F0F0F0;stroke-width:9.72"/>
	<line x1="1411.43" y1="1989.06" x2="1411.43" y2="1924.26" style="stroke:#F0F0F0;stroke-width:9.72"/>
	<line x1="1411.43" y1="1891.86" x2="1411.43" y2="1827.06" style="stroke:#F0F0F0;stroke-width:9.72"/>
	<line x1="1411.43" y1="1794.66" x2="1411.43" y2="1729.86" style="stroke:#F0F0F0;stroke-width:9.72"/>
	<line x1="1411.43" y1="1697.46" x2="1411.43" y2="1632.66" style="stroke:#F0F0F0;stroke-width:9.72"/>
	<line x1="1411.43" y1="1600.26" x2="1411.43" y2="1535.46" style="stroke:#F0F0F0;stroke-width:9.72"/>
	<line x1="1411.43" y1="1503.06" x2="1411.43" y2="1438.26" style="stroke:#F0F0F0;stroke-width:9.72"/>
	<line x1="1411.43" y1="1405.86" x2="1411.43" y2="1341.06" style="stroke:#F0F0F0;stroke-width:9.72"/>
	<line x1="1411.43" y1="1308.66" x2="1411.43" y2="1243.86" style="stroke:#F0F0F0;stroke-width:9.72"/>
	<line x1="1411.43" y1="1211.46" x2="1411.43" y2="1146.66" style="stroke:#F0F0F0;stroke-width:9.72"/>
	<line x1="1411.43" y1="1114.26" x2="1411.43" y2="1049.46" style="stroke:#F0F0F0;stroke-width:9.72"/>
	<line x1="1411.43" y1="1017.06" x2="1411.43" y2="952.26" style="stroke:#F0F0F0;stroke-width:9.72"/>
	<line x1="1411.43" y1="919.86" x2="1411.43" y2="855.06" style="stroke:#F0F0F0;stroke-width:9.72"/>
	<line x1="1411.43" y1="822.66" x2="1411.43" y2="757.86" style="stroke:#F0F0F0;stroke-width:9.72"/>
	<line x1="1411.43" y1="725.46" x2="1411.43" y2="660.66" style="stroke:#F0F0F0;stroke-width:9.72"/>
	<line x1="1411.43" y1="628.26" x2="1411.43" y2="563.46" style="stroke:#F0F0F0;stroke-width:9.72"/>
	<line x1="1411.43" y1="531.06" x2="1411.43" y2="466.26" style="stroke:#F0F0F0;stroke-width:9.72"/>
	<line x1="1411.43" y1="433.86" x2="1411.43" y2="369.06" style="stroke:#F0F0F0;stroke-width:9.72"/>
	<line x1="1411.43" y1="336.66" x2="1411.43" y2="309.82" style="stroke:#F0F0F0;stroke-width:9.72"/>
	<line x1="2226.82" y1="2766.66" x2="2226.82" y2="2701.86" style="stroke:#F0F0F0;stroke-width:9.72"/>
	<line x1="2226.82" y1="2669.46" x2="2226.82" y2="2604.66" style="stroke:#F0F0F0;stroke-width:9.72"/>
	<line x1="2226.82" y1="2572.26" x2="2226.82" y2="2507.46" style="stroke:#F0F0F0;stroke-width:9.72"/>
	<line x1="2226.82" y1="2475.06" x2="2226.82" y2="2410.26" style="stroke:#F0F0F0;stroke-width:9.72"/>
	<line x1="2226.82" y1="2377.86" x2="2226.82" y2="2313.06" style="stroke:#F0F0F0;stroke-width:9.72"/>
	<line x1="2226.82" y1="2280.66" x2="2226.82" y2="2215.86" style="stroke:#F0F0F0;stroke-width:9.72"/>
	<line x1="2226.82" y1="2183.46" x2="2226.82" y2="2118.66" style="stroke:#F0F0F0;stroke-width:9.72"/>
	<line x1="2226.82" y1="2086.26" x2="2226.82" y2="2021.46" style="stroke:#F0F0F0;stroke-width:9.72"/>
	<line x1="2226.82" y1="1989.06" x2="2226.82" y2="1924.26" style="stroke:#F0F0F0;stroke-width:9.72"/>
	<line x1="2226.82" y1="1891.86" x2="2226.82" y2="1827.06" style="stroke:#F0F0F0;stroke-width:9.72"/>
	<line x1="2226.82" y1="1794.66" x2="2226.82" y2="1729.86" style="stroke:#F0F0F0;stroke-width:9.72"/>
	<line x1="2226.82" y1="1697.46" x2="2226.82" y2="1632.66" style="stroke:#F0F0F0;stroke-width:9.72"/>
	<line x1="2226.82" y1="1600.26" x2="2226.82" y2="1535.46" style="stroke:#F0F0F0;stroke-width:9.72"/>
	<line x1="2226.82" y1="1503.06" x2="2226.82" y2="1438.26" style="stroke:#F0F0F0;stroke-width:9.72"/>
	<line x1="2226.82" y1="1405.86" x2="2226.82" y2="1341.06" style="stroke:#F0F0F0;stroke-width:9.72"/>
	<line x1="2226.82" y1="1308.66" x2="2226.82" y2="1243.86" style="stroke:#F0F0F0;stroke-width:9.72"/>
	<line x1="2226.82" y1="1211.46" x2="2226.82" y2="1146.66" style="stroke:#F0F0F0;stroke-width:9.72"/>
	<line x1="2226.82" y1="1114.26" x2="2226.82" y2="1049.46" style="stroke:#F0F0F0;stroke-width:9.72"/>
	<line x1="2226.82" y1="1017.06" x2="2226.82" y2="952.26" style="stroke:#F0F0F0;stroke-width:9.72"/>
	<line x1="2226.82" y1="919.86" x2="2226.82" y2="855.06" style="stroke:#F0F0F0;stroke-width:9.72"/>
	<line x1="2226.82" y1="822.66" x2="2226.82" y2="757.86" style="stroke:#F0F0F0;stroke-width:9.72"/>
	<line x1="2226.82" y1="725.46" x2="2226.82" y2="660.66" style="stroke:#F0F0F0;stroke-width:9.72"/>
	<line x1="2226.82" y1="628.26" x2="2226.82" y2="563.46" style="stroke:#F0F0F0;stroke-width:9.72"/>
	<line x1="2226.82" y1="531.06" x2="2226.82" y2="466.26" style="stroke:#F0F0F0;stroke-width:9.72"/>
	<line x1="2226.82" y1="433.86" x2="2226.82" y2="369.06" style="stroke:#F0F0F0;stroke-width:9.72"/>
	<line x1="2226.82" y1="336.66" x2="2226.82" y2="309.82" style="stroke:#F0F0F0;stroke-width:9.72"/>
	<line x1="3042.06" y1="2766.66" x2="3042.06" y2="2701.86" style="stroke:#F0F0F0;stroke-width:9.72"/>
	<line x1="3042.06" y1="2669.46" x2="3042.06" y2="2604.66" style="stroke:#F0F0F0;stroke-width:9.72"/>
	<line x1="3042.06" y1="2572.26" x2="3042.06" y2="2507.46" style="stroke:#F0F0F0;stroke-width:9.72"/>
	<line x1="3042.06" y1="2475.06" x2="3042.06" y2="2410.26" style="stroke:#F0F0F0;stroke-width:9.72"/>
	<line x1="3042.06" y1="2377.86" x2="3042.06" y2="2313.06" style="stroke:#F0F0F0;stroke-width:9.72"/>
	<line x1="3042.06" y1="2280.66" x2="3042.06" y2="2215.86" style="stroke:#F0F0F0;stroke-width:9.72"/>
	<line x1="3042.06" y1="2183.46" x2="3042.06" y2="2118.66" style="stroke:#F0F0F0;stroke-width:9.72"/>
	<line x1="3042.06" y1="2086.26" x2="3042.06" y2="2021.46" style="stroke:#F0F0F0;stroke-width:9.72"/>
	<line x1="3042.06" y1="1989.06" x2="3042.06" y2="1924.26" style="stroke:#F0F0F0;stroke-width:9.72"/>
	<line x1="3042.06" y1="1891.86" x2="3042.06" y2="1827.06" style="stroke:#F0F0F0;stroke-width:9.72"/>
	<line x1="3042.06" y1="1794.66" x2="3042.06" y2="1729.86" style="stroke:#F0F0F0;stroke-width:9.72"/>
	<line x1="3042.06" y1="1697.46" x2="3042.06" y2="1632.66" style="stroke:#F0F0F0;stroke-width:9.72"/>
	<line x1="3042.06" y1="1600.26" x2="3042.06" y2="1535.46" style="stroke:#F0F0F0;stroke-width:9.72"/>
	<line x1="3042.06" y1="1503.06" x2="3042.06" y2="1438.26" style="stroke:#F0F0F0;stroke-width:9.72"/>
	<line x1="3042.06" y1="1405.86" x2="3042.06" y2="1341.06" style="stroke:#F0F0F0;stroke-width:9.72"/>
	<line x1="3042.06" y1="1308.66" x2="3042.06" y2="1243.86" style="stroke:#F0F0F0;stroke-width:9.72"/>
	<line x1="3042.06" y1="1211.46" x2="3042.06" y2="1146.66" style="stroke:#F0F0F0;stroke-width:9.72"/>
	<line x1="3042.06" y1="1114.26" x2="3042.06" y2="1049.46" style="stroke:#F0F0F0;stroke-width:9.72"/>
	<line x1="3042.06" y1="1017.06" x2="3042.06" y2="952.26" style="stroke:#F0F0F0;stroke-width:9.72"/>
	<line x1="3042.06" y1="919.86" x2="3042.06" y2="855.06" style="stroke:#F0F0F0;stroke-width:9.72"/>
	<line x1="3042.06" y1="822.66" x2="3042.06" y2="757.86" style="stroke:#F0F0F0;stroke-width:9.72"/>
	<line x1="3042.06" y1="725.46" x2="3042.06" y2="660.66" style="stroke:#F0F0F0;stroke-width:9.72"/>
	<line x1="3042.06" y1="628.26" x2="3042.06" y2="563.46" style="stroke:#F0F0F0;stroke-width:9.72"/>
	<line x1="3042.06" y1="531.06" x2="3042.06" y2="466.26" style="stroke:#F0F0F0;stroke-width:9.72"/>
	<line x1="3042.06" y1="433.86" x2="3042.06" y2="369.06" style="stroke:#F0F0F0;stroke-width:9.72"/>
	<line x1="3042.06" y1="336.66" x2="3042.06" y2="309.82" style="stroke:#F0F0F0;stroke-width:9.72"/>
	<line x1="3857.29" y1="2766.66" x2="3857.29" y2="2701.86" style="stroke:#F0F0F0;stroke-width:9.72"/>
	<line x1="3857.29" y1="2669.46" x2="3857.29" y2="2604.66" style="stroke:#F0F0F0;stroke-width:9.72"/>
	<line x1="3857.29" y1="2572.26" x2="3857.29" y2="2507.46" style="stroke:#F0F0F0;stroke-width:9.72"/>
	<line x1="3857.29" y1="2475.06" x2="3857.29" y2="2410.26" style="stroke:#F0F0F0;stroke-width:9.72"/>
	<line x1="3857.29" y1="2377.86" x2="3857.29" y2="2313.06" style="stroke:#F0F0F0;stroke-width:9.72"/>
	<line x1="3857.29" y1="2280.66" x2="3857.29" y2="2215.86" style="stroke:#F0F0F0;stroke-width:9.72"/>
	<line x1="3857.29" y1="2183.46" x2="3857.29" y2="2118.66" style="stroke:#F0F0F0;stroke-width:9.72"/>
	<line x1="3857.29" y1="2086.26" x2="3857.29" y2="2021.46" style="stroke:#F0F0F0;stroke-width:9.72"/>
	<line x1="3857.29" y1="1989.06" x2="3857.29" y2="1924.26" style="stroke:#F0F0F0;stroke-width:9.72"/>
	<line x1="3857.29" y1="1891.86" x2="3857.29" y2="1827.06" style="stroke:#F0F0F0;stroke-width:9.72"/>
	<line x1="3857.29" y1="1794.66" x2="3857.29" y2="1729.86" style="stroke:#F0F0F0;stroke-width:9.72"/>
	<line x1="3857.29" y1="1697.46" x2="3857.29" y2="1632.66" style="stroke:#F0F0F0;stroke-width:9.72"/>
	<line x1="3857.29" y1="1600.26" x2="3857.29" y2="1535.46" style="stroke:#F0F0F0;stroke-width:9.72"/>
	<line x1="3857.29" y1="1503.06" x2="3857.29" y2="1438.26" style="stroke:#F0F0F0;stroke-width:9.72"/>
	<line x1="3857.29" y1="1405.86" x2="3857.29" y2="1341.06" style="stroke:#F0F0F0;stroke-width:9.72"/>
	<line x1="3857.29" y1="1308.66" x2="3857.29" y2="1243.86" style="stroke:#F0F0F0;stroke-width:9.72"/>
	<line x1="3857.29" y1="1211.46" x2="3857.29" y2="1146.66" style="stroke:#F0F0F0;stroke-width:9.72"/>
	<line x1="3857.29" y1="1114.26" x2="3857.29" y2="1049.46" style="stroke:#F0F0F0;stroke-width:9.72"/>
	<line x1="3857.29" y1="1017.06" x2="3857.29" y2="952.26" style="stroke:#F0F0F0;stroke-width:9.72"/>
	<line x1="3857.29" y1="919.86" x2="3857.29" y2="855.06" style="stroke:#F0F0F0;stroke-width:9.72"/>
	<line x1="3857.29" y1="822.66" x2="3857.29" y2="757.86" style="stroke:#F0F0F0;stroke-width:9.72"/>
	<line x1="3857.29" y1="725.46" x2="3857.29" y2="660.66" style="stroke:#F0F0F0;stroke-width:9.72"/>
	<line x1="3857.29" y1="628.26" x2="3857.29" y2="563.46" style="stroke:#F0F0F0;stroke-width:9.72"/>
	<line x1="3857.29" y1="531.06" x2="3857.29" y2="466.26" style="stroke:#F0F0F0;stroke-width:9.72"/>
	<line x1="3857.29" y1="433.86" x2="3857.29" y2="369.06" style="stroke:#F0F0F0;stroke-width:9.72"/>
	<line x1="3857.29" y1="336.66" x2="3857.29" y2="309.82" style="stroke:#F0F0F0;stroke-width:9.72"/>
	<path d=" M1082.87 2694.60 L1090.29 2694.77 L1097.72 2695.28 L1105.14 2695.44 L1112.57 2695.44 L1119.99 2695.44 L1127.42 2695.44 L1134.84 2695.44 L1142.27 2695.44 L1149.69 2695.44 L1157.12 2695.44 L1164.54 2695.44 L1171.97 2695.44 L1179.39 2695.44 L1186.82 2695.44 L1194.24 2695.44 L1201.67 2695.44 L1209.09 2695.44 L1216.52 2695.44 L1223.94 2695.44 L1231.37 2695.44 L1238.79 2695.44 L1246.22 2695.44 L1253.64 2695.44 L1261.07 2695.44 L1268.49 2695.44 L1275.92 2695.44 L1283.34 2695.44 L1290.77 2695.44 L1298.19 2695.44 L1305.62 2695.44 L1313.04 2695.44 L1320.47 2695.44 L1327.89 2695.44 L1335.32 2695.44 L1342.74 2695.44 L1350.17 2695.44 L1357.59 2694.94 L1365.02 2694.77 L1372.44 2694.77 L1379.87 2695.11 L1387.29 2695.44 L1394.72 2695.44 L1402.14 2695.44 L1409.57 2695.44 L1416.99 2695.44 L1424.42 2695.44 L1431.84 2695.44 L1439.27 2695.44 L1446.69 2695.44 L1454.12 2695.44 L1461.54 2695.44 L1468.97 2695.44 L1476.39 2695.44 L1483.82 2695.44 L1491.24 2695.44 L1498.67 2695.44 L1506.09 2695.44 L1513.52 2694.77 L1520.94 2694.09 L1528.37 2693.93 L1535.79 2694.43 L1543.22 2695.44 L1550.64 2695.44 L1558.07 2695.44 L1565.49 2695.11 L1572.92 2694.77 L1580.34 2694.09 L1587.77 2694.26 L1595.19 2694.77 L1602.62 2695.28 L1610.04 2695.44 L1617.47 2695.28 L1624.89 2694.77 L1632.32 2694.60 L1639.74 2694.26 L1647.17 2694.60 L1654.59 2694.26 L1662.02 2694.43 L1669.44 2694.26 L1676.87 2694.26 L1684.29 2693.59 L1691.72 2692.74 L1699.14 2692.74 L1706.57 2693.08 L1713.99 2692.07 L1721.42 2691.23 L1728.84 2691.06 L1736.27 2691.90 L1743.69 2692.58 L1751.12 2692.74 L1758.54 2692.74 L1765.97 2692.24 L1773.39 2692.74 L1780.82 2693.59 L1788.24 2694.77 L1795.67 2694.09 L1803.09 2692.74 L1810.52 2691.90 L1817.94 2692.41 L1825.37 2692.74 L1832.79 2693.25 L1840.22 2693.93 L1847.64 2694.09 L1855.07 2693.42 L1862.49 2692.58 L1869.92 2691.23 L1877.34 2690.38 L1884.77 2690.38 L1892.19 2690.72 L1899.62 2689.03 L1907.04 2685.99 L1914.47 2685.83 L1921.89 2688.19 L1929.32 2691.56 L1936.74 2692.07 L1944.17 2691.23 L1951.59 2689.71 L1959.02 2688.53 L1966.44 2688.02 L1973.87 2687.68 L1981.29 2688.36 L1988.72 2688.69 L1996.14 2688.36 L2003.57 2686.84 L2010.99 2683.46 L2018.42 2682.62 L2025.84 2682.96 L2033.27 2684.64 L2040.69 2682.62 L2048.12 2680.93 L2055.54 2681.10 L2062.97 2683.13 L2070.39 2684.14 L2077.82 2681.78 L2085.24 2679.58 L2092.67 2677.39 L2100.09 2673.68 L2107.52 2668.28 L2114.94 2666.76 L2122.37 2668.78 L2129.79 2664.73 L2137.05 2661.19 L2144.48 2660.51 L2151.90 2663.21 L2159.32 2661.36 L2166.75 2651.23 L2174.18 2635.20 L2181.60 2617.48 L2189.03 2602.97 L2196.45 2586.60 L2203.88 2562.64 L2211.30 2488.73 L2218.73 2236.28 L2226.15 2157.30 L2233.57 2243.70 L2241.00 2492.61 L2248.43 2562.98 L2255.85 2586.43 L2263.28 2610.39 L2270.70 2629.46 L2278.13 2645.33 L2285.55 2653.09 L2292.98 2652.75 L2300.40 2651.06 L2307.82 2652.58 L2315.25 2658.32 L2322.68 2661.69 L2330.10 2666.59 L2337.53 2670.64 L2344.95 2672.49 L2352.38 2672.66 L2359.80 2673.00 L2367.23 2675.19 L2374.65 2678.91 L2382.07 2679.58 L2389.50 2680.76 L2396.93 2682.45 L2404.35 2685.49 L2411.78 2686.33 L2419.20 2684.31 L2426.63 2681.61 L2434.05 2680.59 L2441.48 2681.27 L2448.90 2683.46 L2456.32 2686.67 L2463.75 2689.37 L2471.18 2690.04 L2478.60 2688.86 L2486.03 2689.03 L2493.45 2689.20 L2500.88 2688.69 L2508.30 2688.53 L2515.73 2687.51 L2523.15 2687.51 L2530.57 2687.18 L2538.00 2687.18 L2545.43 2685.83 L2552.85 2686.33 L2560.28 2688.36 L2567.70 2690.89 L2575.13 2690.72 L2582.55 2690.72 L2589.98 2691.39 L2597.40 2692.58 L2604.82 2692.41 L2612.25 2691.39 L2619.68 2689.54 L2627.10 2689.37 L2634.53 2691.39 L2641.95 2693.25 L2649.38 2693.25 L2656.80 2693.08 L2664.23 2692.41 L2671.65 2692.58 L2679.08 2693.25 L2686.50 2693.42 L2693.93 2692.24 L2701.35 2690.55 L2708.78 2691.06 L2716.20 2692.74 L2723.63 2694.43 L2731.05 2693.76 L2738.48 2692.74 L2745.90 2693.08 L2753.33 2693.76 L2760.75 2694.60 L2768.18 2694.09 L2775.60 2693.42 L2783.03 2692.91 L2790.45 2692.91 L2797.88 2693.25 L2805.30 2694.09 L2812.73 2694.26 L2820.15 2693.76 L2827.58 2693.08 L2835.00 2692.41 L2842.43 2692.91 L2849.85 2694.09 L2857.28 2694.94 L2864.70 2694.94 L2872.13 2694.60 L2879.55 2694.77 L2886.98 2694.94 L2894.40 2694.77 L2901.83 2694.77 L2909.25 2694.77 L2916.68 2694.77 L2924.10 2694.60 L2931.53 2694.26 L2938.95 2694.26 L2946.38 2694.09 L2953.80 2694.26 L2961.23 2693.76 L2968.65 2693.93 L2976.08 2693.93 L2983.50 2693.93 L2990.93 2694.09 L2998.35 2694.60 L3005.78 2695.11 L3013.20 2695.44 L3020.63 2695.44 L3028.05 2695.44 L3035.48 2695.44 L3042.90 2695.44 L3050.33 2695.44 L3057.75 2695.44 L3065.18 2695.44 L3072.60 2695.44 L3080.03 2695.44 L3087.45 2695.44 L3094.88 2695.44 L3102.30 2695.44 L3109.73 2695.44 L3117.15 2695.44 L3124.58 2695.44 L3132.00 2695.44 L3139.43 2695.44 L3146.85 2695.44 L3154.28 2695.44 L3161.70 2695.44 L3169.13 2695.44 L3176.55 2695.44 L3183.98 2695.44 L3191.40 2695.44 L3198.83 2695.44 L3206.25 2695.44 L3213.68 2695.44 L3221.10 2695.44 L3228.53 2695.44 L3235.95 2695.44 L3243.38 2695.44 L3250.80 2695.44 L3258.23 2695.44 L3265.65 2695.44 L3273.08 2695.44 L3280.50 2695.44 L3287.93 2695.28 L3295.35 2694.77 L3302.78 2694.60" stroke-linejoin="round" style="fill:none;stroke:#0000FF;stroke-width:9.72"/>
	<path d=" M1910.25 2484.68 L1911.60 2510.16 L1913.12 2586.77 L1914.64 2695.44 L1916.16 2695.44 L1917.68 2695.44 L1919.19 2695.44 L1920.71 2695.44 L1922.23 2695.44 L1923.58 2695.44 L1925.10 2695.44 L1926.62 2695.44 L1928.14 2695.44 L1929.66 2695.44 L1931.18 2695.44 L1932.69 2695.44 L1934.21 2695.44 L1935.56 2695.44 L1937.08 2695.44 L1938.60 2695.44 L1940.12 2695.44 L1941.64 2695.44 L1943.16 2695.44 L1944.68 2695.44 L1946.19 2695.44 L1947.54 2695.44 L1949.06 2695.44 L1950.58 2695.44 L1952.10 2695.44 L1953.62 2695.44 L1955.14 2695.44 L1956.66 2695.44 L1958.18 2695.44 L1959.53 2695.44 L1961.04 2695.44 L1962.56 2695.44 L1964.08 2695.44 L1965.60 2695.44 L1967.12 2695.44 L1968.64 2695.44 L1969.99 2581.20 L1971.51 2507.46 L1973.03 2484.68 L1974.54 2513.03 L1976.06 2592.34 L1977.58 2695.44 L1979.10 2695.44 L1980.62 2695.44 L1981.97 2695.44 L1983.49 2695.44 L1985.01 2695.44 L1986.53 2695.44 L1988.04 2695.44 L1989.56 2695.44 L1991.08 2695.44 L1992.60 2695.44 L1993.95 2695.44 L1995.47 2695.44 L1996.99 2695.44 L1998.51 2695.44 L2000.03 2695.44 L2001.54 2695.44 L2003.06 2695.44 L2004.58 2695.44 L2005.93 2695.44 L2007.45 2695.44 L2008.97 2695.44 L2010.49 2695.44 L2012.01 2695.44 L2013.53 2695.44 L2015.04 2695.44 L2016.56 2695.44 L2017.91 2695.44 L2019.43 2695.44 L2020.95 2695.44 L2022.47 2695.44 L2023.99 2695.44 L2025.51 2695.44 L2027.03 2695.44 L2028.54 2695.44 L2029.89 2695.44 L2031.41 2695.44 L2032.93 2695.44 L2034.45 2695.44 L2035.97 2695.44 L2037.49 2695.44 L2039.01 2695.44 L2040.53 2695.44 L2041.88 2695.44 L2043.39 2695.44 L2044.91 2695.44 L2046.43 2695.44 L2047.95 2695.44 L2049.47 2695.44 L2050.99 2695.44 L2052.51 2695.44 L2053.86 2695.44 L2055.38 2695.44 L2056.89 2695.44 L2058.41 2695.44 L2059.93 2695.44 L2061.45 2695.44 L2062.97 2695.44 L2064.49 2695.44 L2065.84 2695.44 L2067.36 2695.44 L2068.88 2695.44 L2070.39 2695.44 L2071.91 2695.44 L2073.43 2695.44 L2074.95 2695.44 L2076.47 2695.44 L2077.82 2695.44 L2079.34 2695.44 L2080.86 2695.44 L2082.38 2695.44 L2083.89 2695.44 L2085.41 2695.44 L2086.93 2695.44 L2088.45 2695.44 L2089.80 2695.44 L2091.32 2695.44 L2092.84 2695.44 L2094.36 2695.44 L2095.88 2695.44 L2097.39 2695.44 L2098.91 2695.44 L2100.43 2695.44 L2101.78 2695.44 L2103.30 2695.44 L2104.82 2695.44 L2106.34 2695.44 L2107.86 2695.44 L2109.38 2695.44 L2110.89 2695.44 L2112.41 2695.44 L2113.76 2695.44 L2115.28 2695.44 L2116.80 2695.44 L2118.32 2695.44 L2119.84 2695.44 L2121.36 2656.46 L2122.88 2549.64 L2124.39 2476.41 L2125.74 2356.59 L2127.26 2338.71 L2128.78 2423.08 L2130.30 2524.33 L2131.82 2613.43 L2133.34 2695.44 L2134.86 2695.44 L2136.38 2695.44 L2137.73 2695.44 L2139.24 2695.44 L2140.76 2695.44 L2142.28 2601.11 L2143.80 2517.58 L2145.32 2485.18 L2146.84 2503.74 L2148.36 2573.27 L2149.71 2693.93 L2151.23 2695.44 L2152.74 2695.44 L2154.26 2695.44 L2155.78 2695.44 L2157.30 2695.44 L2158.82 2695.44 L2160.34 2695.44 L2161.69 2695.44 L2163.21 2695.44 L2164.73 2695.44 L2166.24 2695.44 L2167.76 2695.44 L2169.28 2695.44 L2170.80 2695.44 L2172.32 2695.44 L2173.67 2695.44 L2175.19 2695.44 L2176.71 2695.44 L2178.23 2695.44 L2179.74 2695.44 L2181.26 2695.44 L2182.78 2695.44 L2184.30 2695.44 L2185.65 2695.44 L2187.17 2695.44 L2188.69 2695.44 L2190.21 2695.44 L2191.73 2695.44 L2193.24 2695.44 L2194.76 2695.44 L2196.28 2695.44 L2197.63 2695.44 L2199.15 2695.44 L2200.67 2695.44 L2202.19 2695.44 L2203.71 2695.44 L2205.23 2695.44 L2206.74 2695.44 L2208.26 2695.44 L2209.61 2607.02 L2211.13 2478.77 L2212.65 2337.86 L2214.17 2299.05 L2215.69 2362.16 L2217.21 2527.54 L2218.73 2635.03 L2220.24 2695.44 L2221.59 2541.38 L2223.11 1965.26 L2224.63 1221.92 L2226.15 532.07 L2227.67 452.59 L2229.19 971.49 L2230.71 1699.65 L2232.23 2082.21 L2233.57 2133.17 L2235.09 2076.64 L2236.61 2073.77 L2238.13 2242.52 L2239.65 2451.60 L2241.17 2505.94 L2242.69 2577.99 L2244.21 2695.44 L2245.56 2695.44 L2247.07 2695.44 L2248.59 2695.44 L2250.11 2695.44 L2251.63 2695.44 L2253.15 2695.44 L2254.67 2695.44 L2256.19 2695.44 L2257.54 2695.44 L2259.06 2695.44 L2260.57 2695.44 L2262.09 2695.44 L2263.61 2691.06 L2265.13 2571.41 L2266.65 2502.90 L2268.17 2485.18 L2269.52 2518.76 L2271.04 2603.31 L2272.56 2695.44 L2274.07 2695.44 L2275.59 2695.44 L2277.11 2695.44 L2278.63 2695.44 L2280.15 2695.44 L2281.50 2695.44 L2283.02 2695.44 L2284.54 2695.44 L2286.06 2695.44 L2287.57 2695.44 L2289.09 2695.44 L2290.61 2695.44 L2292.13 2695.44 L2293.48 2695.44 L2295.00 2695.44 L2296.52 2695.44 L2298.04 2695.44 L2299.56 2695.44 L2301.07 2695.44 L2302.59 2695.44 L2304.11 2695.44 L2305.46 2695.44 L2306.98 2695.44 L2308.50 2605.16 L2310.02 2519.78 L2311.54 2485.35 L2313.06 2502.06 L2314.57 2569.89 L2316.09 2688.69 L2317.44 2695.44 L2318.96 2695.44 L2320.48 2695.44 L2322.00 2695.44 L2323.52 2695.44 L2325.04 2695.44 L2326.56 2695.44 L2328.07 2695.44 L2329.43 2695.44 L2330.94 2695.44 L2332.46 2695.44 L2333.98 2695.44 L2335.50 2695.44 L2337.02 2695.44 L2338.54 2695.44 L2340.06 2695.44 L2341.41 2695.44 L2342.93 2695.44 L2344.44 2695.44 L2345.96 2695.44 L2347.48 2695.44 L2349.00 2695.44 L2350.52 2695.44 L2352.04 2695.44 L2353.39 2695.44 L2354.91 2586.77 L2356.43 2510.16 L2357.94 2484.68" stroke-linejoin="round" style="fill:none;stroke:#FF0000;stroke-width:9.72"/>
	<line x1="524.98" y1="2766.66" x2="524.98" y2="309.82" style="stroke:#000000;stroke-width:6.48"/>
	<line x1="524.98" y1="2695.28" x2="479.93" y2="2695.28" style="stroke:#000000;stroke-width:6.48"/>
	<text x="457.48" y="2734.71" style="font-family:'Helvetica';font-size:112.56px;fill:#000000" text-anchor="end">0</text>
	<line x1="524.98" y1="1923.92" x2="479.93" y2="1923.92" style="stroke:#000000;stroke-width:6.48"/>
	<text x="457.48" y="1963.36" style="font-family:'Helvetica';font-size:112.56px;fill:#000000" text-anchor="end">20</text>
	<line x1="524.98" y1="1152.56" x2="479.93" y2="1152.56" style="stroke:#000000;stroke-width:6.48"/>
	<text x="457.48" y="1192.00" style="font-family:'Helvetica';font-size:112.56px;fill:#000000" text-anchor="end">40</text>
	<line x1="524.98" y1="381.04" x2="479.93" y2="381.04" style="stroke:#000000;stroke-width:6.48"/>
	<text x="457.48" y="420.47" style="font-family:'Helvetica';font-size:112.56px;fill:#000000" text-anchor="end">60</text>
	<text x="214.55" y="1538.16" style="font-family:'Helvetica';font-size:112.56px;fill:#000000" transform="rotate(-90 214.55,1538.16)" text-anchor="middle">Density</text>
	<line x1="524.98" y1="2766.66" x2="3928.50" y2="2766.66" style="stroke:#000000;stroke-width:6.48"/>
	<line x1="596.19" y1="2766.66" x2="596.19" y2="2811.54" style="stroke:#000000;stroke-width:6.48"/>
	<text x="596.19" y="2912.86" style="font-family:'Helvetica';font-size:112.56px;fill:#000000" text-anchor="middle">0</text>
	<line x1="1411.43" y1="2766.66" x2="1411.43" y2="2811.54" style="stroke:#000000;stroke-width:6.48"/>
	<text x="1411.43" y="2912.86" style="font-family:'Helvetica';font-size:112.56px;fill:#000000" text-anchor="middle">1</text>
	<line x1="2226.82" y1="2766.66" x2="2226.82" y2="2811.54" style="stroke:#000000;stroke-width:6.48"/>
	<text x="2226.82" y="2912.86" style="font-family:'Helvetica';font-size:112.56px;fill:#000000" text-anchor="middle">2</text>
	<line x1="3042.06" y1="2766.66" x2="3042.06" y2="2811.54" style="stroke:#000000;stroke-width:6.48"/>
	<text x="3042.06" y="2912.86" style="font-family:'Helvetica';font-size:112.56px;fill:#000000" text-anchor="middle">3</text>
	<line x1="3857.29" y1="2766.66" x2="3857.29" y2="2811.54" style="stroke:#000000;stroke-width:6.48"/>
	<text x="3857.29" y="2912.86" style="font-family:'Helvetica';font-size:112.56px;fill:#000000" text-anchor="middle">4</text>
	<text x="2226.82" y="3070.31" style="font-family:'Helvetica';font-size:112.56px;fill:#000000" text-anchor="middle">Beta</text>
	<rect x="3967.48" y="1354.56" width="1280.31" height="367.20" style="fill:#FFFFFF"/>
	<rect x="3970.72" y="1357.80" width="1273.83" height="360.72" style="fill:none;stroke:#FFFFFF;stroke-width:6.48"/>
	<line x1="4016.08" y1="1459.52" x2="4275.28" y2="1459.52" style="stroke:#0000FF;stroke-width:9.72"/>
	<line x1="4016.08" y1="1616.96" x2="4275.28" y2="1616.96" style="stroke:#FF0000;stroke-width:9.72"/>
	<text x="4342.78" y="1498.96" style="font-family:'Helvetica';font-size:112.56px;fill:#000000">Fixed Population</text>
	<text x="4342.78" y="1656.40" style="font-family:'Helvetica';font-size:112.56px;fill:#000000">Superpopulation</text>
	<text x="2226.82" y="243.10" style="font-family:'Helvetica';font-size:157.44px;fill:#000000" text-anchor="middle">Distribution of Estimated Beta</text>
</svg>
